<?xml version="1.0" standalone="no"?>
<!DOCTYPE svg PUBLIC "-//W3C//DTD SVG 20010904//EN"
 "http://www.w3.org/TR/2001/REC-SVG-20010904/DTD/svg10.dtd">
<svg version="1.0" xmlns="http://www.w3.org/2000/svg"
 width="512.000000pt" height="512.000000pt" viewBox="0 0 512.000000 512.000000"
 preserveAspectRatio="xMidYMid meet">
<metadata>
Created by potrace 1.16, written by Peter Selinger 2001-2019
</metadata>
<g transform="translate(0.000000,512.000000) scale(0.100000,-0.100000)"
fill="#000000" stroke="none">
<path d="M2203 4954 c-332 -40 -704 -157 -890 -281 -79 -52 -177 -145 -228
-218 -97 -137 -148 -275 -165 -451 -12 -130 -13 -2777 0 -2904 13 -129 32
-199 84 -305 117 -237 332 -394 711 -518 282 -92 511 -127 845 -127 316 0 567
37 830 122 392 127 607 282 726 523 51 104 71 174 84 300 13 120 13 2777 0
2909 -33 342 -217 598 -536 748 -198 92 -496 172 -759 203 -161 19 -545 18
-702 -1z m558 -119 c302 -14 656 -105 903 -232 71 -37 110 -66 177 -133 139
-137 209 -282 229 -472 6 -55 10 -588 10 -1318 l0 -1225 -102 -57 c-269 -147
-583 -244 -958 -294 -192 -25 -614 -30 -820 -10 -217 22 -480 76 -660 135
-177 59 -263 95 -397 169 l-103 57 0 1225 c0 730 4 1263 10 1318 20 190 90
335 229 472 94 94 184 147 362 216 122 46 363 108 509 129 124 19 360 33 450
29 30 -2 103 -6 161 -9z m-1416 -3678 c203 -81 473 -147 750 -184 167 -22 722
-25 890 -5 379 47 710 139 979 274 l119 60 -7 -116 c-19 -319 -148 -520 -424
-664 -348 -180 -780 -264 -1239 -240 -336 16 -631 88 -898 218 -198 96 -308
194 -385 342 -53 100 -78 200 -86 344 l-7 116 109 -55 c60 -30 150 -70 199
-90z"/>
<path d="M1624 4536 c-24 -18 -24 -88 0 -135 89 -171 461 -284 936 -284 474 0
847 113 936 284 24 47 24 117 0 135 -45 33 -96 10 -110 -50 -36 -150 -533
-270 -979 -237 -384 29 -677 139 -677 254 0 39 -68 60 -106 33z"/>
<path d="M2403 3570 c-13 -5 -24 -11 -25 -12 -1 -2 -5 -206 -8 -455 l-5 -452
-165 109 c-91 60 -175 109 -188 110 -55 1 -87 -51 -58 -95 8 -12 78 -64 155
-115 78 -51 141 -96 141 -100 0 -4 -63 -49 -141 -100 -77 -51 -147 -103 -155
-115 -29 -44 3 -96 58 -95 13 1 97 50 188 110 l165 109 5 -447 c3 -246 8 -452
12 -458 12 -19 57 -25 81 -13 12 7 176 120 365 252 365 256 373 264 336 314
-11 14 -162 118 -336 232 -175 113 -317 208 -317 211 0 3 142 98 317 211 174
114 325 218 336 232 37 50 27 59 -306 293 -457 319 -411 292 -455 274z m272
-308 c83 -58 188 -132 233 -165 l84 -60 -242 -158 c-132 -88 -243 -159 -246
-159 -2 0 -4 149 -4 331 0 261 3 329 13 323 6 -4 80 -55 162 -112z m75 -1021
l242 -158 -84 -60 c-104 -75 -379 -267 -395 -277 -10 -6 -13 62 -13 323 0 182
2 331 4 331 3 0 114 -71 246 -159z"/>
<path d="M2167 862 c-12 -13 -17 -37 -17 -75 l0 -57 -58 0 c-68 0 -92 -18 -92
-68 0 -42 31 -62 97 -62 l53 0 0 -59 c0 -51 3 -62 22 -75 32 -22 55 -20 83 9
20 19 25 34 25 75 l0 50 49 0 c50 0 88 21 92 50 7 59 -16 80 -87 80 l-54 0 0
46 c0 45 -13 82 -34 96 -20 14 -63 8 -79 -10z"/>
<path d="M2716 714 c-27 -26 -24 -71 6 -96 17 -16 43 -18 187 -18 190 0 211 6
211 64 0 61 -15 66 -213 66 -146 0 -178 -3 -191 -16z"/>
<path d="M317 3442 c-25 -27 -22 -78 6 -96 12 -8 109 -47 215 -87 184 -70 195
-72 220 -58 34 19 43 76 15 101 -23 20 -386 158 -417 158 -13 0 -30 -8 -39
-18z"/>
<path d="M4550 3388 c-102 -39 -193 -78 -203 -86 -28 -24 -19 -82 15 -101 25
-14 36 -11 225 59 109 41 206 83 215 93 39 38 11 108 -43 107 -13 -1 -107 -33
-209 -72z"/>
<path d="M162 2608 c-16 -16 -15 -83 2 -97 9 -8 83 -11 247 -9 l234 3 13 28
c11 22 11 32 0 55 l-13 27 -235 3 c-175 2 -239 -1 -248 -10z"/>
<path d="M4470 2604 c-8 -8 -13 -28 -13 -44 0 -59 3 -60 257 -60 167 0 235 3
244 12 7 7 12 28 12 48 0 20 -5 41 -12 48 -9 9 -77 12 -244 12 -197 0 -233 -2
-244 -16z"/>
<path d="M520 1855 c-107 -41 -201 -82 -207 -92 -31 -41 -1 -103 49 -103 26 0
391 140 411 157 25 23 22 78 -5 97 -12 9 -29 16 -38 16 -8 -1 -103 -34 -210
-75z"/>
<path d="M4352 1914 c-27 -19 -30 -74 -4 -96 20 -18 383 -158 410 -158 58 0
87 84 40 114 -27 17 -392 156 -411 156 -7 0 -23 -7 -35 -16z"/>
</g>
</svg>
