<?xml version="1.0" encoding="UTF-8"?>
<svg version="1.1" xmlns="http://www.w3.org/2000/svg" width="1840" height="1603">
<path d="M0 0 C531.3 0 1062.6 0 1610 0 C1609.39565069 7.25219169 1608.78420697 14.15592638 1607.50250244 21.26008606 C1607.3531228 22.11334321 1607.20374317 22.96660036 1607.04983687 23.84571379 C1606.55428904 26.66865957 1606.05109516 29.49018442 1605.54785156 32.31176758 C1605.18722879 34.35680088 1604.82708416 36.40191854 1604.46737671 38.44711304 C1603.48743151 44.0108647 1602.50079863 49.57341198 1601.51300526 55.13577485 C1600.45652544 61.0918287 1599.40633238 67.04899116 1598.35540771 73.00602722 C1596.34129349 84.4173198 1594.32167496 95.82763102 1592.30005622 107.23759621 C1590.08575951 119.73634329 1587.8770543 132.23607564 1585.66912127 144.7359482 C1582.93232466 160.2296084 1580.19474933 175.72312982 1577.45220947 191.21577454 C1567.61204252 246.80651807 1557.81104642 302.40407031 1548 358 C1016.37 358 484.74 358 -63 358 C-61.7159642 349.01174942 -60.37761959 340.08451486 -58.79450989 331.15174866 C-58.58131172 329.93815452 -58.36811356 328.72456037 -58.14845484 327.47419065 C-57.56383012 324.14895098 -56.97721395 320.82407448 -56.38970363 317.49934423 C-55.75332619 313.89514644 -55.11958612 310.29048477 -54.48550415 306.68588257 C-53.2446808 299.63448504 -52.00147461 292.58350966 -50.75746319 285.53267396 C-49.30176262 277.28143455 -47.84853976 269.02975933 -46.39542111 260.7780649 C-43.79529799 246.01342518 -41.19307183 231.24915692 -38.58959961 216.48510742 C-36.07911574 202.24836929 -33.56990768 188.01140717 -31.06225586 173.77416992 C-30.90842836 172.90081311 -30.75460087 172.02745629 -30.59611193 171.12763412 C-29.97725676 167.61406562 -29.35840254 164.10049695 -28.73955153 160.58692772 C-26.33134694 146.9144226 -23.92213439 133.24209507 -21.51274977 119.56979786 C-20.79048227 115.4712025 -20.06825705 111.3725997 -19.34613633 107.27397847 C-8.30303712 44.59553544 -8.30303712 44.59553544 -4.2493242 21.94113624 C-3.95470814 20.29458146 -3.66048495 18.64795632 -3.36669886 17.00125325 C-2.97917887 14.83072459 -2.58982852 12.66053386 -2.19975281 10.49046326 C-1.98942256 9.31771064 -1.77909231 8.14495802 -1.56238842 6.93666744 C-1.11659272 4.60882131 -0.57484532 2.29938128 0 0 Z " fill="#3751ED" transform="translate(230,0)"/>
<path d="M0 0 C-0.66381055 10.03490066 -2.32745039 19.89244552 -3.9387207 29.80737305 C-4.24612969 31.7165903 -4.55320496 33.62586131 -4.85997677 35.53518105 C-5.70025132 40.75897297 -6.54517632 45.98200348 -7.39086056 51.20492196 C-8.30068213 56.82929788 -9.20609171 62.4543841 -10.11199951 68.07939148 C-11.68136918 77.82037847 -13.25338623 87.56093517 -14.82717896 97.3012085 C-17.23616443 112.2108789 -19.6402637 127.12133484 -22.0432667 142.03197044 C-23.00873276 148.02258906 -23.97433134 154.01318631 -24.93992615 160.00378418 C-25.04687344 160.66730203 -25.15382074 161.33081987 -25.26400886 162.01444432 C-26.90657601 172.20509195 -28.549941 182.39561071 -30.19374084 192.58605957 C-35.87378995 227.79921598 -41.5443236 263.01389043 -47.203125 298.23046875 C-47.38711932 299.37551164 -47.57111363 300.52055453 -47.76068354 301.70029569 C-49.79156551 314.33919733 -51.82205455 326.97816207 -53.85235596 339.61715698 C-56.08249629 353.50014978 -58.31338866 367.38302169 -60.54443359 381.26586914 C-60.91896275 383.59642247 -61.29349164 385.92697584 -61.66802025 388.25752926 C-62.22994824 391.75419873 -62.7918764 395.25086817 -63.35380638 398.74753731 C-65.40949872 411.53935372 -67.46501112 424.33119903 -69.52050781 437.12304688 C-69.89382232 439.4462665 -70.26713686 441.76948611 -70.64045143 444.09270573 C-71.76030384 451.06180335 -72.88015231 458.03090161 -74 465 C-79.4185495 498.7210183 -84.8372197 532.44201719 -90.25624305 566.16295934 C-91.3751403 573.12553384 -92.49400879 580.08811296 -93.61285502 587.05069566 C-102.08241043 639.75669374 -110.55563289 692.46209911 -119.03758144 745.16610432 C-120.04682227 751.43721019 -121.05603301 757.7083209 -122.06524658 763.97943115 C-122.26448321 765.21745633 -122.46371984 766.45548151 -122.66899395 767.7310226 C-124.66557324 780.13745692 -126.66213778 792.54389362 -128.65865231 804.95033836 C-129.05208856 807.39516928 -129.44552689 809.83999985 -129.83896732 812.28483009 C-143.60850541 897.84870231 -157.33521517 983.41933505 -171 1069 C-175 1069 -175 1069 -177.953125 1066.40234375 C-179.06232806 1065.25723123 -180.16094662 1064.10179243 -181.25 1062.9375 C-184.69177752 1059.32570696 -188.13738529 1055.82280612 -191.921875 1052.56640625 C-196.88362457 1048.29365623 -201.41790349 1043.63252809 -206 1038.9609375 C-209.87539047 1035.04013229 -213.85496085 1031.34324905 -218.03125 1027.74609375 C-221.99672457 1024.22909547 -225.64859394 1020.39038303 -229.35546875 1016.60546875 C-232.46624598 1013.45556225 -235.61359379 1010.4211404 -238.96875 1007.53125 C-243.91227222 1003.26860087 -248.4321549 998.61799832 -253 993.9609375 C-256.23997537 990.68299366 -259.50697069 987.50864439 -263 984.5 C-267.93462131 980.24967188 -272.44253389 975.60741662 -277 970.9609375 C-280.87539047 967.04013229 -284.85496085 963.34324905 -289.03125 959.74609375 C-292.99672457 956.22909547 -296.64859394 952.39038303 -300.35546875 948.60546875 C-303.46624598 945.45556225 -306.61359379 942.4211404 -309.96875 939.53125 C-314.91227222 935.26860087 -319.4321549 930.61799832 -324 925.9609375 C-327.87539047 922.04013229 -331.85496085 918.34324905 -336.03125 914.74609375 C-339.99672457 911.22909547 -343.64859394 907.39038303 -347.35546875 903.60546875 C-350.46624598 900.45556225 -353.61359379 897.4211404 -356.96875 894.53125 C-361.91227222 890.26860087 -366.4321549 885.61799832 -371 880.9609375 C-374.87539047 877.04013229 -378.85496085 873.34324905 -383.03125 869.74609375 C-386.99672457 866.22909547 -390.64859394 862.39038303 -394.35546875 858.60546875 C-397.46624598 855.45556225 -400.61359379 852.4211404 -403.96875 849.53125 C-408.91227222 845.26860087 -413.4321549 840.61799832 -418 835.9609375 C-421.23997537 832.68299366 -424.50697069 829.50864439 -428 826.5 C-432.93462131 822.24967188 -437.44253389 817.60741662 -442 812.9609375 C-445.87539047 809.04013229 -449.85496085 805.34324905 -454.03125 801.74609375 C-457.99672457 798.22909547 -461.64859394 794.39038303 -465.35546875 790.60546875 C-465.97035156 789.98285156 -466.58523438 789.36023437 -467.21875 788.71875 C-467.79213985 788.12716693 -468.36552971 787.53558386 -468.95629501 786.92607403 C-470.92801108 784.96349731 -470.92801108 784.96349731 -473.16214371 783.54350758 C-475.57000403 781.86683024 -477.27885397 780.38591587 -479 778 C-479.5829446 773.68636161 -478.67043146 769.77209678 -477.78027344 765.54370117 C-477.55155296 764.27746477 -477.32283249 763.01122837 -477.08718109 761.70662117 C-476.58170768 758.90906448 -476.04819231 756.11882255 -475.49314117 753.33068275 C-474.57830044 748.7318516 -473.72725701 744.12246699 -472.88397217 739.51005554 C-471.79280342 733.56523639 -470.6861497 727.6236547 -469.5621798 721.68494946 C-467.26486062 709.53690848 -465.09481402 697.36866948 -462.96679688 685.18994141 C-462.79595841 684.21301767 -462.62511994 683.23609394 -462.44910455 682.22956645 C-461.7441313 678.19776558 -461.03947508 674.16590964 -460.33555138 670.13392538 C-458.27806844 658.35370192 -456.19423459 646.57815331 -454.11083984 634.80249023 C-453.51376406 631.4261611 -452.91677553 628.04981655 -452.31978834 624.67347175 C-451.91492551 622.383754 -451.51003535 620.09404109 -451.10511839 617.80433291 C-448.77222607 604.61214066 -446.44197947 591.4194812 -444.11181641 578.22680664 C-443.89540221 577.00155191 -443.67898802 575.77629718 -443.45601583 574.51391351 C-442.57403443 569.52046409 -441.69205697 564.52701396 -440.81010544 559.53355926 C-439.46840209 551.93712789 -438.12651391 544.34072919 -436.78448737 536.7443549 C-428.44275226 489.52650272 -420.12099791 442.30514141 -411.80448186 395.08284175 C-408.8675671 378.40686199 -405.92845273 361.7312715 -402.98729694 345.05603921 C-401.34381018 335.73796835 -399.70061008 326.41984692 -398.05747581 317.1017139 C-397.65272141 314.80638874 -397.24795426 312.51106584 -396.84317422 310.21574521 C-391.8188922 281.72475943 -386.81009182 253.23114248 -381.82900548 224.73257178 C-381.64957552 223.70599048 -381.47014555 222.67940918 -381.28527832 221.62171936 C-381.10690894 220.60118605 -380.92853956 219.58065274 -380.74476504 218.52919418 C-378.52247924 205.81689665 -376.29232609 193.10597828 -374.06107712 180.39525127 C-372.32377265 170.49591489 -370.59383117 160.5953494 -368.87386423 150.69298571 C-367.73190101 144.12180206 -366.58158763 137.55211749 -365.42430395 130.98361474 C-364.76699478 127.25117055 -364.11365811 123.51814377 -363.47092628 119.78315926 C-362.78271458 115.78410794 -362.07632134 111.78849281 -361.36791992 107.79296875 C-361.17027227 106.6262712 -360.97262463 105.45957365 -360.76898766 104.25752163 C-360.57876345 103.20211713 -360.38853924 102.14671263 -360.19255066 101.05932617 C-360.03341281 100.14753098 -359.87427496 99.23573578 -359.71031475 98.29631042 C-358.9127248 95.71785612 -358.1084215 94.65151812 -356 93 C-353.42016602 92.05491638 -353.42016602 92.05491638 -350.25390625 91.23608398 C-349.04797318 90.91873291 -347.8420401 90.60138184 -346.5995636 90.27441406 C-345.25391427 89.93148937 -343.90822493 89.58872163 -342.5625 89.24609375 C-341.13726559 88.87503129 -339.71227912 88.50301543 -338.28752136 88.13012695 C-335.18192216 87.31942567 -332.07472004 86.51529078 -328.96615601 85.71603394 C-323.89832366 84.4128775 -318.83430041 83.09532419 -313.77075195 81.77563477 C-308.30502073 80.35191638 -302.83897909 78.92942922 -297.37165833 77.51182556 C-283.75535139 73.981295 -270.1468583 70.42181727 -256.54296875 66.84375 C-255.55524664 66.58399069 -254.56752453 66.32423138 -253.54987144 66.05660057 C-249.50916496 64.99388843 -245.46849236 63.93104762 -241.42787838 62.86798382 C-229.92432516 59.84157579 -218.41927399 56.82087808 -206.9140625 53.80078125 C-205.85618341 53.52307199 -204.79830433 53.24536274 -203.7083683 52.95923805 C-187.29350497 48.65020116 -170.87752565 44.34542939 -154.4609375 40.04296875 C-153.3646981 39.75565887 -152.26845871 39.468349 -151.13899994 39.17233276 C-140.21356478 36.30895276 -129.28802696 33.44596526 -118.36223221 30.58395767 C-98.07167236 25.26863433 -77.78251497 19.94822271 -57.50164223 14.59603882 C-54.73977219 13.86720134 -51.97782992 13.13863821 -49.21586609 12.41015625 C-41.5816335 10.39641072 -33.94761588 8.38188844 -26.31521225 6.36122036 C-23.30772678 5.56546893 -20.29973586 4.77164182 -17.2916069 3.9783268 C-15.91172391 3.61393542 -14.53207179 3.24866848 -13.152668 2.88246727 C-11.29206389 2.3885814 -9.43060287 1.89792706 -7.5690918 1.4074707 C-6.53407028 1.13361038 -5.49904877 0.85975006 -4.43266296 0.57759094 C-2 0 -2 0 0 0 Z " fill="#151515" transform="translate(1730,532)"/>
<path d="M0 0 C-0.64680654 9.07049561 -2.02033852 17.99454199 -3.47973633 26.96166992 C-3.73788731 28.56548959 -3.9957045 30.16936302 -4.2532196 31.77328491 C-4.95920317 36.1644675 -5.66983716 40.55488652 -6.38122773 44.94519591 C-7.15087394 49.70042651 -7.91608368 54.45637117 -8.68180847 59.2122345 C-10.01573479 67.49351593 -11.35232268 75.77436421 -12.69067383 84.05493164 C-14.84518946 97.38560547 -16.99426266 110.7171539 -19.14257812 124.04882812 C-19.88586045 128.66098576 -20.62918402 133.27313674 -21.37252808 137.88528442 C-21.55858356 139.03969847 -21.74463905 140.19411251 -21.93633258 141.3835088 C-23.27897519 149.71368747 -24.62237324 158.04374412 -25.96609497 166.37374878 C-31.32532439 199.59771147 -36.67317541 232.82348851 -42.01171875 266.05078125 C-42.19660929 267.20152248 -42.38149983 268.35226371 -42.57199311 269.53787589 C-44.44229495 281.17854607 -46.3123763 292.81925165 -48.18229705 304.45998305 C-51.97286913 328.05717914 -55.76522178 351.65408906 -59.55763268 375.25098968 C-60.1243649 378.77729831 -60.69108572 382.30360877 -61.25780296 385.82991982 C-69.33173089 436.06859446 -77.41028871 486.30652423 -85.48959351 536.54433441 C-87.95146335 551.85246206 -90.41329037 567.16059659 -92.875 582.46875 C-93.03871597 583.48681858 -93.20243195 584.50488716 -93.37110901 585.5538063 C-98.87422492 619.77516191 -104.37521092 653.99685959 -109.875 688.21875 C-110.06222201 689.3837175 -110.24944402 690.54868499 -110.44233942 691.74895453 C-114.04731739 714.18056091 -117.6521395 736.61219233 -121.2567749 759.04385376 C-123.50184432 773.01492387 -125.7469728 786.98598449 -127.9921875 800.95703125 C-128.26935301 802.68172241 -128.26935301 802.68172241 -128.55211782 804.44125581 C-134.08838326 838.89101793 -139.62735888 873.34034347 -145.16861725 907.78930283 C-146.3075041 914.86954798 -147.44632774 921.94980331 -148.58514404 929.03005981 C-149.32629009 933.63787904 -150.06744069 938.24569753 -150.80859375 942.85351562 C-150.98972418 943.97962305 -151.17085462 945.10573047 -151.35747385 946.26596236 C-153.4886492 959.51561689 -155.62013456 972.76522148 -157.75210392 986.01474828 C-159.066945 994.18619083 -160.38148431 1002.35768189 -161.69579113 1010.52921039 C-162.59346539 1016.11027437 -163.49150451 1021.69127947 -164.38984513 1027.27223623 C-164.93563616 1030.66357209 -165.48105516 1034.0549677 -166.02636719 1037.44638062 C-166.27421611 1038.98734314 -166.52221364 1040.52828176 -166.77038193 1042.06919289 C-168.21520331 1051.04086146 -169.63214072 1060.01623349 -171 1069 C-175 1069 -175 1069 -176.61230469 1067.82592773 C-177.38429199 1067.01297241 -177.38429199 1067.01297241 -178.171875 1066.18359375 C-178.74929443 1065.58812744 -179.32671387 1064.99266113 -179.92163086 1064.37915039 C-180.82667358 1063.41803345 -180.82667358 1063.41803345 -181.75 1062.4375 C-183.01506416 1061.13100608 -184.28197245 1059.8262951 -185.55078125 1058.5234375 C-186.1535791 1057.90178711 -186.75637695 1057.28013672 -187.37744141 1056.63964844 C-189.15371202 1054.84466898 -190.99879604 1053.18022648 -192.9375 1051.5625 C-197.70126914 1047.53953297 -202.00902889 1043.04038095 -206.37084961 1038.59204102 C-209.47509776 1035.4451397 -212.61873079 1032.41671577 -215.96875 1029.53125 C-220.91227222 1025.26860087 -225.4321549 1020.61799832 -230 1015.9609375 C-233.87539047 1012.04013229 -237.85496085 1008.34324905 -242.03125 1004.74609375 C-245.99672457 1001.22909547 -249.64859394 997.39038303 -253.35546875 993.60546875 C-256.46624598 990.45556225 -259.61359379 987.4211404 -262.96875 984.53125 C-267.91227222 980.26860087 -272.4321549 975.61799832 -277 970.9609375 C-280.87539047 967.04013229 -284.85496085 963.34324905 -289.03125 959.74609375 C-292.99672457 956.22909547 -296.64859394 952.39038303 -300.35546875 948.60546875 C-303.46624598 945.45556225 -306.61359379 942.4211404 -309.96875 939.53125 C-314.91227222 935.26860087 -319.4321549 930.61799832 -324 925.9609375 C-327.23997537 922.68299366 -330.50697069 919.50864439 -334 916.5 C-338.93462131 912.24967188 -343.44253389 907.60741662 -348 902.9609375 C-351.87539047 899.04013229 -355.85496085 895.34324905 -360.03125 891.74609375 C-363.99672457 888.22909547 -367.64859394 884.39038303 -371.35546875 880.60546875 C-374.46624598 877.45556225 -377.61359379 874.4211404 -380.96875 871.53125 C-385.91227222 867.26860087 -390.4321549 862.61799832 -395 857.9609375 C-398.87539047 854.04013229 -402.85496085 850.34324905 -407.03125 846.74609375 C-410.99672457 843.22909547 -414.64859394 839.39038303 -418.35546875 835.60546875 C-421.46624598 832.45556225 -424.61359379 829.4211404 -427.96875 826.53125 C-432.91227222 822.26860087 -437.4321549 817.61799832 -442 812.9609375 C-445.87539047 809.04013229 -449.85496085 805.34324905 -454.03125 801.74609375 C-457.99672457 798.22909547 -461.64859394 794.39038303 -465.35546875 790.60546875 C-465.97035156 789.98285156 -466.58523438 789.36023437 -467.21875 788.71875 C-467.79245866 788.12906559 -468.36616732 787.53938118 -468.95726109 786.93182755 C-470.93455478 784.96774084 -470.93455478 784.96774084 -473.15344906 783.49172592 C-478.75056889 779.47680276 -478.75056889 779.47680276 -479.400774 775.62714386 C-479.1675496 772.67869613 -478.65371958 769.90769812 -478.02758789 767.01660156 C-477.72135026 765.33697704 -477.72135026 765.33697704 -477.40892601 763.62342072 C-476.82532038 760.46537039 -476.20226661 757.31788205 -475.56465411 754.17038631 C-474.86761229 750.67264587 -474.2252979 747.16487139 -473.57862854 743.65753174 C-472.71144911 738.9726555 -471.83863492 734.28903821 -470.94548321 729.60903549 C-468.4940684 716.7617603 -466.18278765 703.8931273 -463.92919922 691.00976562 C-463.75345002 690.005775 -463.57770081 689.00178438 -463.39662588 687.96736979 C-462.66567465 683.79095579 -461.93511774 679.61447325 -461.2053501 675.43785226 C-459.23978379 664.19235637 -457.2527021 652.95068527 -455.264171 641.70923114 C-454.41678684 636.91867296 -453.56997655 632.12801341 -452.72315508 627.33735573 C-452.28969449 624.88517335 -451.8562094 622.4329953 -451.42270035 619.98082149 C-447.3834181 597.13196345 -443.34921044 574.28220844 -439.31457648 551.43252922 C-438.58169227 547.28194418 -437.84876293 543.13136712 -437.11579709 538.98079649 C-429.11023381 493.6475588 -421.11979518 448.31166919 -413.13912305 402.97404313 C-412.71886862 400.58661135 -412.29860736 398.19918076 -411.87834477 395.81175041 C-406.80102572 366.96835511 -401.72472788 338.12478009 -396.64970016 309.28098154 C-396.25708504 307.04957514 -395.86446282 304.81816999 -395.47183806 302.58676529 C-395.21182793 301.10904694 -394.95181782 299.63132859 -394.69180775 298.15361023 C-394.56363642 297.4251743 -394.43546509 296.69673837 -394.30340979 295.94622862 C-393.66094998 292.29490446 -393.01852014 288.64357504 -392.37614954 284.99223518 C-389.78020503 270.23648167 -387.18328879 255.48090226 -384.58073076 240.72631359 C-383.63694982 235.37566179 -382.6934302 230.0249639 -381.74995063 224.67425895 C-381.40332588 222.70853406 -381.05665239 220.74281777 -380.7099787 218.77710152 C-377.82323545 202.40487657 -374.95659156 186.02931052 -372.11320782 169.64949989 C-370.71456017 161.593319 -369.30838241 153.5384589 -367.8999117 145.48399007 C-366.79909428 139.18500431 -365.70841435 132.88438027 -364.62580442 126.58224106 C-363.97359845 122.80014308 -363.31163225 119.01980523 -362.64670062 115.23992586 C-362.34438537 113.50942987 -362.04622251 111.77820252 -361.75253034 110.04622221 C-361.35569309 107.70890874 -360.94437594 105.37460952 -360.52919006 103.04049683 C-360.30454103 101.74326124 -360.07989199 100.44602566 -359.8484354 99.1094799 C-359.00792344 96.02903908 -358.56699136 94.81161296 -356 93 C-353.65405317 92.17886541 -351.40483958 91.50671918 -349.00390625 90.90063477 C-348.28534203 90.71045273 -347.5667778 90.52027069 -346.8264389 90.32432556 C-344.40759592 89.68682348 -341.98516172 89.06422546 -339.5625 88.44140625 C-337.82182637 87.98583961 -336.08139445 87.52934859 -334.34118652 87.07200623 C-329.56975624 85.82077494 -324.79507997 84.58235375 -320.01980591 83.34588623 C-314.91940383 82.02275988 -309.8221663 80.68755299 -304.72460938 79.35351562 C-296.00157431 77.07221871 -287.27677807 74.79777246 -278.55078125 72.52783203 C-265.14516068 69.04016972 -251.74392667 65.53585659 -238.34375 62.02734375 C-236.11384157 61.44354947 -233.88393231 60.85975837 -231.65402222 60.27597046 C-228.3006352 59.39805193 -224.94725155 58.52012059 -221.59388542 57.64212227 C-213.706419 55.57712545 -205.81840853 53.51421574 -197.93017578 51.45214844 C-169.51982578 44.02457407 -141.11891546 36.56200197 -112.72669601 29.06542969 C-59.24312308 14.94422965 -59.24312308 14.94422965 -33.24932861 8.13070679 C-30.40312989 7.38460162 -27.55723236 6.63736471 -24.71160889 5.8890686 C-20.88008283 4.88158944 -17.04754019 3.87801822 -13.21484375 2.875 C-12.09271988 2.57945724 -10.97059601 2.28391449 -9.81446838 1.97941589 C-8.80311325 1.71550552 -7.79175812 1.45159515 -6.74975586 1.1796875 C-5.43605263 0.83526611 -5.43605263 0.83526611 -4.09580994 0.48388672 C-2 0 -2 0 0 0 Z " fill="#3751ED" transform="translate(1104,532)"/>
<path d="M0 0 C-0.66212818 9.84528995 -2.26728239 19.52810496 -3.84692383 29.2565918 C-4.14448504 31.10673112 -4.4417139 32.95692392 -4.73864079 34.80716515 C-5.55206102 39.86982069 -6.37012677 44.93171606 -7.18895674 49.99349904 C-8.07063564 55.44911475 -8.94792085 60.90543708 -9.82571411 66.36167908 C-11.34789027 75.81964951 -12.87273869 85.27718593 -14.39938354 94.73443604 C-16.63657209 108.5936143 -18.86943759 122.45348641 -21.10110438 136.31355476 C-22.14466747 142.79472768 -23.18838062 149.27587644 -24.23213196 155.75701904 C-24.44069114 157.05206439 -24.64925032 158.34710973 -24.86412948 159.68139887 C-26.36089501 168.97497987 -27.85843517 178.26843585 -29.35636902 187.56182861 C-34.94691604 222.24683508 -40.52901384 256.93319045 -46.1015625 291.62109375 C-46.47093884 293.92031227 -46.84031534 296.21953077 -47.209692 298.51874924 C-48.68187094 307.68259094 -50.15397255 316.84644506 -51.62596416 326.01031685 C-55.73219877 351.57352795 -59.84046536 377.13641239 -63.94921875 402.69921875 C-64.13567782 403.85929837 -64.32213688 405.01937799 -64.51424623 406.21461153 C-70.36716925 442.62923504 -76.22337201 479.04333021 -82.08203125 515.45703125 C-82.36451096 517.21274889 -82.36451096 517.21274889 -82.65269732 519.00393558 C-84.75311811 532.05879548 -86.85361436 545.11364324 -88.95413208 558.16848755 C-102.97993931 645.33980291 -116.99620108 732.51264665 -131 819.6875 C-131.10657338 820.35092624 -131.21314677 821.01435247 -131.32294965 821.69788253 C-144.56480101 904.12933003 -157.79887635 986.56201914 -171 1069 C-175 1069 -175 1069 -176.61230469 1067.82592773 C-177.38429199 1067.01297241 -177.38429199 1067.01297241 -178.171875 1066.18359375 C-178.74929443 1065.58812744 -179.32671387 1064.99266113 -179.92163086 1064.37915039 C-180.82667358 1063.41803345 -180.82667358 1063.41803345 -181.75 1062.4375 C-183.01506416 1061.13100608 -184.28197245 1059.8262951 -185.55078125 1058.5234375 C-186.1535791 1057.90178711 -186.75637695 1057.28013672 -187.37744141 1056.63964844 C-189.15371202 1054.84466898 -190.99879604 1053.18022648 -192.9375 1051.5625 C-197.70126914 1047.53953297 -202.00902889 1043.04038095 -206.37084961 1038.59204102 C-209.47509776 1035.4451397 -212.61873079 1032.41671577 -215.96875 1029.53125 C-220.91227222 1025.26860087 -225.4321549 1020.61799832 -230 1015.9609375 C-233.23997537 1012.68299366 -236.50697069 1009.50864439 -240 1006.5 C-244.93462131 1002.24967188 -249.44253389 997.60741662 -254 992.9609375 C-257.87539047 989.04013229 -261.85496085 985.34324905 -266.03125 981.74609375 C-269.99672457 978.22909547 -273.64859394 974.39038303 -277.35546875 970.60546875 C-280.46624598 967.45556225 -283.61359379 964.4211404 -286.96875 961.53125 C-291.91227222 957.26860087 -296.4321549 952.61799832 -301 947.9609375 C-304.87539047 944.04013229 -308.85496085 940.34324905 -313.03125 936.74609375 C-316.99672457 933.22909547 -320.64859394 929.39038303 -324.35546875 925.60546875 C-327.46624598 922.45556225 -330.61359379 919.4211404 -333.96875 916.53125 C-338.91227222 912.26860087 -343.4321549 907.61799832 -348 902.9609375 C-351.23997537 899.68299366 -354.50697069 896.50864439 -358 893.5 C-362.93462131 889.24967188 -367.44253389 884.60741662 -372 879.9609375 C-375.87539047 876.04013229 -379.85496085 872.34324905 -384.03125 868.74609375 C-387.99672457 865.22909547 -391.64859394 861.39038303 -395.35546875 857.60546875 C-398.46624598 854.45556225 -401.61359379 851.4211404 -404.96875 848.53125 C-409.91227222 844.26860087 -414.4321549 839.61799832 -419 834.9609375 C-422.87539047 831.04013229 -426.85496085 827.34324905 -431.03125 823.74609375 C-434.99672457 820.22909547 -438.64859394 816.39038303 -442.35546875 812.60546875 C-445.46369333 809.45814701 -448.60814352 806.42612232 -451.9609375 803.5390625 C-456.23183264 799.85668469 -460.17754765 795.89851117 -464.125 791.875 C-465.47926855 790.49493586 -466.83599579 789.11727965 -468.1953125 787.7421875 C-468.83500977 787.09088867 -469.47470703 786.43958984 -470.13378906 785.76855469 C-471.84064448 784.15101666 -473.57280073 782.85532333 -475.4921875 781.5078125 C-478 779 -478 779 -478.29492188 775.68464661 C-478.09059187 769.55930166 -476.87310643 763.55586491 -475.7890625 757.5378418 C-475.54701891 756.16576735 -475.3055826 754.79358566 -475.06469631 753.42130756 C-474.4003539 749.64683598 -473.72749949 745.87392417 -473.05330348 742.10120201 C-472.32132694 737.9961796 -471.59742879 733.88973203 -470.87257385 729.78344727 C-469.60038178 722.5826724 -468.32327557 715.38278287 -467.04299927 708.18344116 C-465.13821636 697.47173623 -463.24155449 686.75860492 -461.34705508 676.04507697 C-460.44344669 670.93511167 -459.53956939 665.82519396 -458.63563538 660.71528625 C-458.45324057 659.68420272 -458.27084576 658.65311918 -458.08292383 657.59079069 C-456.75768732 650.10009155 -455.4310304 642.60964473 -454.10374451 635.11930847 C-448.53226494 603.67634106 -442.98041095 572.2299539 -437.44140625 540.78125 C-437.24074161 539.64198334 -437.04007697 538.50271669 -436.83333158 537.3289268 C-434.9884446 526.85460861 -433.14372921 516.38026021 -431.29926491 505.90586758 C-428.37972616 489.32644137 -425.45887254 472.74724723 -422.53710938 456.16821289 C-422.22367683 454.38968742 -422.22367683 454.38968742 -421.90391231 452.57523215 C-420.84297351 446.55512581 -419.7820156 440.53502285 -418.72105026 434.51492119 C-416.57577091 422.34216686 -414.43068807 410.16937791 -412.28564453 397.99658203 C-412.0707995 396.77737104 -411.85595446 395.55816005 -411.63459897 394.30200326 C-407.18506008 369.05142093 -402.73654234 343.80065873 -398.28816553 318.54987166 C-396.54988426 308.6826865 -394.81153778 298.81551282 -393.07313538 288.948349 C-392.84652176 287.66209057 -392.61990815 286.37583214 -392.38642746 285.05059618 C-391.25325811 278.61874225 -390.12008057 272.18688977 -388.98689747 265.75503826 C-386.58246092 252.10758278 -384.17823717 238.46008984 -381.77429229 224.81254774 C-380.13510216 215.50673753 -378.49565284 206.200973 -376.85601491 196.89524168 C-375.91596595 191.55996294 -374.97602307 186.22466558 -374.03640556 180.88931084 C-373.77406983 179.39984468 -373.77406983 179.39984468 -373.50643438 177.8802883 C-373.15949728 175.91036446 -372.81262332 173.9404295 -372.46581417 171.97048312 C-371.63302366 167.24152008 -370.79846185 162.51288359 -369.95981693 157.78495502 C-368.40579268 149.01785333 -366.8664698 140.24889739 -365.37308693 131.4712311 C-364.65551222 127.2615497 -363.92891879 123.05344969 -363.2012291 118.84550643 C-362.85633534 116.83688306 -362.51571937 114.82751999 -362.17959976 112.81740975 C-361.71630188 110.04864913 -361.23846763 107.28276589 -360.75732422 104.51705933 C-360.62364315 103.69465972 -360.48996208 102.87226011 -360.35223007 102.0249393 C-359.6435506 98.03925076 -359.16288777 95.58154475 -356 93 C-353.65405282 92.17886529 -351.4048399 91.50671923 -349.00390625 90.90063477 C-348.28531937 90.71044706 -347.56673248 90.52025936 -346.82637024 90.3243084 C-344.4075499 89.68681304 -341.98513863 89.06422045 -339.5625 88.44140625 C-337.82219251 87.98593144 -336.08212679 87.529532 -334.34228516 87.07228088 C-329.57102977 85.82108516 -324.79652691 84.58270569 -320.02142334 83.34629059 C-314.91463133 82.02153233 -309.81099052 80.68474331 -304.70703125 79.34912109 C-295.97812171 77.06641742 -287.24745732 74.79053929 -278.515625 72.51904297 C-265.2152381 69.05863519 -251.91958089 65.58029417 -238.625 62.09765625 C-234.20102107 60.9389192 -229.7770254 59.78024607 -225.35302734 58.62158203 C-224.25453146 58.33386555 -223.15603558 58.04614906 -222.02425194 57.7497139 C-214.18671149 55.69710896 -206.34863242 53.64657007 -198.51025391 51.59716797 C-197.39409761 51.30533756 -196.27794132 51.01350716 -195.12796211 50.7128334 C-194.01133123 50.42087963 -192.89470036 50.12892586 -191.74423218 49.828125 C-164.00293091 42.5748498 -136.26678577 35.3020606 -108.53376389 28.01719666 C-105.39762935 27.19344394 -102.26145785 26.36983208 -99.12527466 25.54626465 C-80.21407706 20.58005086 -61.30332714 15.61222694 -42.39950562 10.61799812 C-40.27079235 10.05568422 -38.14200351 9.49365743 -36.01318359 8.93174744 C-29.80732429 7.29361308 -23.60197151 5.65362513 -17.39794922 4.00854492 C-15.32652612 3.46131703 -13.25507638 2.91418998 -11.18359375 2.3671875 C-10.2619191 2.12175705 -9.34024445 1.8763266 -8.39064026 1.62345886 C-7.15204506 1.29720268 -7.15204506 1.29720268 -5.88842773 0.96435547 C-5.17887436 0.77630341 -4.46932098 0.58825134 -3.73826599 0.39450073 C-2 0 -2 0 0 0 Z " fill="#151515" transform="translate(478,532)"/>
</svg>
