<?xml version="1.0" standalone="no"?>
<!DOCTYPE svg PUBLIC "-//W3C//DTD SVG 20010904//EN"
 "http://www.w3.org/TR/2001/REC-SVG-20010904/DTD/svg10.dtd">
<svg version="1.0" xmlns="http://www.w3.org/2000/svg"
 width="338.000000pt" height="256.000000pt" viewBox="0 0 338.000000 256.000000"
 preserveAspectRatio="xMidYMid meet">
<metadata>
Created by potrace 1.16, written by Peter Selinger 2001-2019
</metadata>
<g transform="translate(0.000000,256.000000) scale(0.100000,-0.100000)"
fill="#000000" stroke="none">
<path d="M2353 1967 c-208 -56 -260 -74 -251 -84 13 -16 -12 -19 -28 -3 -11
11 -126 -17 -132 -32 -2 -4 -8 -6 -12 -3 -5 3 -253 -60 -552 -140 -299 -80
-625 -168 -724 -195 -100 -26 -193 -56 -207 -65 -14 -9 -34 -37 -43 -61 l-17
-44 102 -383 c57 -210 108 -393 114 -407 17 -36 74 -70 116 -70 20 0 86 14
146 31 61 16 155 42 210 56 55 14 102 30 103 35 2 4 7 6 12 3 5 -3 109 22 233
55 123 33 228 60 232 60 4 0 5 9 2 20 -3 13 0 20 9 20 8 0 14 -7 14 -16 0 -19
39 -10 58 14 7 9 12 11 12 4 0 -17 20 -15 42 5 10 9 18 11 18 6 0 -6 51 3 118
22 64 18 168 46 230 63 110 30 157 57 129 74 -6 4 -9 9 -6 12 3 4 17 -4 30
-17 l24 -22 65 18 c36 11 77 21 93 24 32 6 47 23 20 23 -10 0 -25 5 -33 11
-13 9 -12 10 3 5 18 -6 21 2 11 27 -5 13 -13 13 -70 -3 -36 -9 -66 -19 -68
-21 -2 -2 -8 -13 -14 -24 -10 -17 -11 -18 -12 -2 0 9 -4 17 -9 17 -5 0 -118
-30 -252 -66 -134 -36 -262 -70 -284 -75 -71 -17 -73 -18 -45 -39 14 -11 20
-20 14 -20 -7 0 -22 8 -34 18 -22 18 -25 18 -122 -9 -55 -15 -105 -32 -112
-38 -7 -6 -15 -8 -19 -5 -3 3 -169 -38 -368 -91 -200 -53 -375 -95 -390 -93
-17 3 -25 0 -23 -7 5 -12 -23 -41 -31 -33 -3 3 0 18 5 35 10 26 1 66 -56 274
-36 134 -68 256 -71 271 -3 15 -9 25 -14 23 -4 -3 -17 5 -28 17 -16 16 -18 24
-9 29 8 5 16 1 21 -13 4 -11 10 -19 13 -16 3 3 -7 51 -22 106 l-27 101 25 30
c14 16 28 27 31 24 7 -6 148 26 160 37 5 4 4 11 -2 14 -13 9 -14 26 -2 26 5 0
12 -8 16 -19 7 -22 -70 -40 654 154 261 70 486 131 500 137 14 6 30 10 35 9 5
-1 41 7 80 18 75 22 510 139 537 146 62 14 93 26 105 42 8 11 13 13 14 6 0 -7
7 -13 16 -13 10 0 13 6 10 18 -4 12 2 26 15 38 22 19 22 19 10 -3 -13 -25 -15
-45 -3 -25 14 21 42 3 41 -27 -4 -64 33 -134 61 -116 5 3 8 -4 7 -15 -1 -23
-8 -25 -26 -7 -11 10 -13 8 -7 -13 3 -14 14 -55 23 -92 13 -53 20 -68 35 -68
10 0 18 -7 18 -16 0 -14 -3 -14 -15 -4 -8 7 -15 9 -15 5 0 -24 84 -311 93
-317 6 -3 16 -4 24 -1 7 3 16 -2 19 -11 9 -23 -2 -31 -21 -16 -24 20 -25 10
-8 -58 14 -57 14 -64 -1 -81 -9 -10 -13 -21 -9 -26 5 -4 0 -5 -9 -2 -10 3 -20
2 -24 -4 -3 -6 -12 -8 -18 -6 -20 8 -136 -27 -147 -44 -7 -12 -9 -12 -9 1 -1
12 -3 11 -14 -3 -8 -10 -16 -14 -17 -8 -3 8 -123 -13 -137 -25 -2 -1 1 -11 7
-21 6 -10 11 -14 11 -9 0 5 6 3 14 -3 10 -8 16 -9 21 -1 3 5 11 10 17 10 6 0
1 -11 -12 -25 l-23 -24 39 10 c22 6 93 25 159 44 66 18 132 35 146 39 28 6 79
49 79 66 0 6 -4 8 -10 5 -6 -3 -7 1 -4 9 3 9 11 14 16 13 19 -4 20 21 1 26
-17 4 -17 5 0 6 9 0 17 8 17 16 0 8 -8 15 -17 15 -13 0 -15 2 -5 8 10 7 6 32
-18 123 -17 62 -35 116 -40 119 -4 3 -8 16 -7 30 2 44 -85 350 -100 350 -9 0
-12 9 -8 31 8 43 -13 103 -46 135 -50 48 -97 43 -396 -39z"/>
<path d="M2235 1654 c-49 -14 -92 -28 -94 -30 -5 -5 109 -437 119 -447 10 -11
169 30 215 56 51 29 79 77 77 136 -1 48 -40 193 -41 154 -1 -13 -5 -23 -11
-23 -15 0 -12 47 3 53 18 7 -24 78 -60 99 -50 30 -109 30 -208 2z m164 -83
c18 -18 39 -78 59 -168 7 -28 6 -49 -2 -65 -12 -26 -66 -55 -109 -60 -29 -3
-29 -3 -61 122 -18 69 -36 135 -40 147 -6 19 -2 24 26 32 56 16 106 13 127 -8z"/>
<path d="M1847 1550 c-76 -21 -140 -40 -141 -42 -2 -1 3 -32 11 -67 10 -43 18
-59 23 -50 5 7 12 10 16 6 4 -3 1 -13 -5 -21 -10 -12 -4 -46 29 -167 22 -84
42 -154 43 -156 4 -3 297 73 302 79 3 2 0 21 -6 42 -9 32 -14 37 -32 32 -12
-3 -62 -17 -110 -30 l-88 -24 -8 21 c-5 12 -12 36 -15 54 l-7 32 91 28 92 28
-6 29 c-4 17 -10 34 -14 38 -4 4 -47 -4 -97 -17 -49 -14 -89 -24 -90 -22 -10
20 -35 120 -31 125 3 3 6 1 6 -5 0 -6 26 -3 68 8 37 10 86 23 108 29 l42 10
-10 40 c-6 22 -16 40 -22 39 -6 0 -73 -18 -149 -39z"/>
<path d="M1406 1435 c-124 -44 -163 -160 -81 -242 32 -32 36 -33 113 -33 54 0
82 4 84 12 8 22 59 -36 63 -72 3 -18 2 -30 -1 -27 -3 3 -24 -4 -46 -15 -32
-17 -51 -20 -108 -16 -62 5 -70 3 -75 -13 -3 -11 -7 -28 -10 -38 -5 -17 2 -21
50 -31 97 -20 226 24 260 90 35 67 5 158 -59 185 -24 10 -61 13 -124 11 l-89
-4 -11 36 c-9 30 -9 37 6 49 40 32 117 48 158 33 16 -6 26 -5 30 2 4 7 2 14
-4 16 -8 2 -7 8 4 19 8 8 13 20 11 26 -9 27 -110 34 -171 12z"/>
<path d="M1078 1347 c-21 -6 -38 -16 -38 -24 0 -7 3 -12 8 -12 21 4 42 -2 42
-12 0 -6 -9 -9 -20 -6 -16 4 -20 1 -16 -11 3 -9 19 -70 37 -134 17 -65 35
-116 39 -113 4 3 8 -6 8 -20 0 -14 -4 -22 -9 -19 -5 3 -9 -2 -9 -10 0 -47
-110 -75 -145 -36 -10 11 -33 75 -51 142 -18 68 -37 124 -42 126 -5 1 -7 15
-4 31 2 16 0 31 -5 34 -11 7 -83 -10 -83 -19 0 -22 24 -94 32 -94 5 0 6 -4 3
-10 -7 -11 33 -170 46 -184 5 -6 9 -19 9 -29 0 -29 40 -78 76 -93 41 -17 90
-18 135 -2 40 13 92 48 85 56 -3 3 2 10 10 17 22 15 30 101 13 140 -7 17 -13
39 -14 50 -3 41 -17 85 -26 85 -6 0 -8 4 -4 9 10 18 -17 101 -37 112 -15 8
-17 13 -7 25 6 8 10 13 8 13 -2 -1 -21 -6 -41 -12z"/>
</g>
</svg>
